<?xml version="1.0" standalone="no"?>
<!DOCTYPE svg PUBLIC "-//W3C//DTD SVG 20010904//EN"
 "http://www.w3.org/TR/2001/REC-SVG-20010904/DTD/svg10.dtd">
<svg version="1.0" xmlns="http://www.w3.org/2000/svg"
 width="512.000000pt" height="512.000000pt" viewBox="0 0 512.000000 512.000000"
 preserveAspectRatio="xMidYMid meet">

<g transform="translate(0.000000,512.000000) scale(0.100000,-0.100000)"
fill="#000000" stroke="none">
<path d="M491 5073 c-61 -22 -124 -87 -146 -152 -13 -42 -16 -79 -13 -185 3
-127 4 -135 33 -182 19 -30 51 -62 83 -84 l52 -34 0 -168 0 -168 80 0 80 0 -2
-181 -3 -182 -150 -56 c-82 -32 -178 -72 -213 -90 -83 -45 -187 -155 -230
-245 -65 -134 -63 -78 -60 -1469 l3 -1263 37 -75 c46 -93 112 -158 206 -202
l67 -32 1013 -3 1012 -2 234 -131 234 -130 354 197 c194 108 362 201 373 206
16 7 91 -31 390 -197 l370 -205 410 228 410 227 2 505 3 505 -370 205 -370
205 0 451 c0 349 -3 454 -12 462 -20 16 -808 452 -817 452 -5 0 -97 -49 -206
-110 -109 -60 -199 -110 -201 -110 -2 0 -4 17 -4 38 -1 125 -68 287 -160 385
-77 82 -139 118 -333 193 l-162 62 -3 181 -2 181 80 0 80 0 0 169 0 169 45 26
c53 31 100 96 116 159 6 27 10 95 7 164 -3 108 -6 122 -33 171 -32 59 -87 103
-150 121 -28 8 -345 11 -1065 10 -902 0 -1030 -2 -1069 -16z m169 -233 l0 -80
85 0 85 0 0 80 0 80 80 0 80 0 0 -80 0 -80 85 0 85 0 0 80 0 80 80 0 80 0 0
-80 0 -80 85 0 85 0 0 80 0 80 80 0 80 0 0 -80 0 -80 85 0 85 0 0 80 0 80 80
0 80 0 0 -80 0 -80 85 0 85 0 0 80 0 80 80 0 80 0 0 -80 0 -80 85 0 85 0 0 80
0 80 55 0 c46 0 60 -4 80 -25 24 -23 25 -31 25 -133 0 -95 -3 -113 -21 -136
l-20 -26 -1027 0 -1026 0 -23 22 c-21 20 -23 29 -23 135 0 108 1 115 25 138
20 21 34 25 80 25 l55 0 0 -80z m1810 -495 l0 -75 -900 0 -900 0 0 75 0 75
900 0 900 0 0 -75z m-160 -483 l0 -237 173 -64 c249 -92 309 -122 366 -179 27
-27 56 -63 65 -80 l17 -32 -1361 0 -1361 0 23 41 c28 51 92 111 150 140 23 12
126 53 228 91 101 38 192 74 202 79 17 9 18 29 18 244 l0 235 740 0 740 0 0
-238z m660 -826 l0 -74 -87 -48 c-49 -26 -105 -58 -125 -71 l-38 -23 0 -453 0
-452 -274 -152 c-151 -84 -277 -153 -280 -153 -3 0 6 16 19 36 30 45 45 95 45
154 0 153 -127 358 -286 462 -65 43 -65 43 -57 78 4 19 8 73 7 120 0 71 -5 95
-27 145 -16 33 -41 76 -57 96 l-29 36 50 74 c27 41 49 77 49 81 0 9 -116 88
-129 88 -6 0 -23 -19 -38 -42 -15 -24 -38 -57 -50 -74 l-23 -31 -52 13 c-68
18 -143 18 -204 -1 -27 -8 -50 -15 -51 -15 -2 0 -27 36 -56 80 l-53 79 -67
-45 c-37 -24 -67 -47 -67 -50 0 -3 23 -38 50 -79 l50 -75 -36 -50 c-70 -97
-97 -223 -72 -330 l13 -54 -72 -49 c-114 -76 -210 -197 -253 -319 -49 -139
-32 -250 48 -328 55 -53 103 -70 194 -70 l65 0 12 -57 c39 -178 155 -323 334
-419 l61 -33 77 40 c96 50 185 130 238 214 40 63 91 194 91 234 0 18 8 20 79
23 83 3 91 -1 41 -22 l-30 -12 0 -274 0 -274 -905 0 -905 0 0 1075 0 1075
1400 0 1400 0 0 -74z m912 -125 l323 -179 2 -409 3 -408 -330 -183 -329 -182
-330 182 -330 183 -1 406 0 407 323 180 c177 99 327 180 334 181 6 1 157 -80
335 -178z m-2266 -256 c85 -53 129 -156 110 -259 l-7 -36 -63 0 c-50 0 -75 -6
-120 -28 -44 -23 -58 -26 -67 -16 -17 21 -99 44 -156 44 -48 0 -54 3 -63 26
-26 66 -4 155 54 221 57 65 104 84 192 81 58 -3 80 -9 120 -33z m-233 -487
c27 -33 19 -118 -17 -192 -81 -165 -303 -307 -410 -262 -90 38 -47 205 89 342
126 128 284 180 338 112z m354 16 c160 -54 323 -244 323 -376 0 -63 -12 -84
-54 -98 -74 -24 -193 27 -296 130 -134 133 -184 315 -97 350 34 13 72 12 124
-6z m-157 -447 c30 -32 76 -75 102 -94 37 -26 48 -41 48 -61 0 -40 -24 -121
-50 -172 -27 -54 -118 -150 -164 -175 l-33 -18 -45 31 c-99 68 -165 170 -189
292 l-12 64 28 21 c78 56 144 117 180 168 l40 55 20 -26 c11 -15 44 -53 75
-85z m1562 -149 l328 -182 0 -406 -1 -405 -330 -183 -331 -183 -329 183 -329
183 0 406 0 407 323 180 c177 99 326 181 331 181 5 1 157 -81 338 -181z m1483
3 l320 -179 3 -409 2 -409 -322 -180 c-176 -98 -324 -180 -328 -182 -3 -1
-155 80 -336 181 l-329 183 -2 404 -3 405 328 182 c180 100 332 182 337 182 6
0 154 -80 330 -178z m-2645 -945 c0 -138 1 -144 23 -159 20 -15 -52 -16 -816
-16 l-838 -1 -47 24 c-90 46 -131 118 -132 229 l0 67 905 0 905 0 0 -144z"/>
<path d="M3305 2746 l-240 -134 -3 -300 -2 -300 246 -137 245 -137 250 139
249 138 0 296 0 295 -242 135 c-133 74 -247 135 -252 136 -6 2 -119 -57 -251
-131z m410 -145 l160 -89 0 -202 0 -202 -162 -90 -161 -89 -166 91 -166 92 0
198 0 198 163 91 c89 50 164 91 167 91 3 0 77 -40 165 -89z"/>
<path d="M2558 1423 l-248 -138 0 -296 0 -295 242 -135 c133 -74 247 -135 252
-136 6 -2 119 57 251 131 l240 134 3 300 2 300 -244 136 c-135 75 -246 136
-248 136 -2 0 -114 -62 -250 -137z m417 -144 l165 -91 0 -198 0 -198 -166 -92
-165 -92 -49 26 c-26 14 -99 55 -161 90 l-114 63 -3 201 -2 200 162 91 c90 50
164 91 166 91 2 0 77 -41 167 -91z"/>
<path d="M4043 1422 l-243 -136 0 -297 0 -297 244 -136 c135 -75 248 -136 251
-136 3 0 116 61 251 136 l244 136 0 297 0 297 -242 135 c-133 74 -247 135
-252 136 -6 1 -120 -60 -253 -135z m413 -141 l159 -88 0 -204 0 -203 -105 -59
c-58 -32 -130 -72 -161 -89 l-55 -31 -167 93 -167 92 0 194 0 194 27 17 c34
23 296 171 304 172 4 1 78 -39 165 -88z"/>
</g>
</svg>
