<?xml version="1.0" standalone="no"?>
<!DOCTYPE svg PUBLIC "-//W3C//DTD SVG 20010904//EN"
 "http://www.w3.org/TR/2001/REC-SVG-20010904/DTD/svg10.dtd">
<svg version="1.0" xmlns="http://www.w3.org/2000/svg"
 width="640.000000pt" height="640.000000pt" viewBox="0 0 640.000000 640.000000"
 preserveAspectRatio="xMidYMid meet">

<g transform="translate(0.000000,640.000000) scale(0.100000,-0.100000)"
fill="#000000" stroke="none">
<path d="M2305 5589 c-57 -51 -49 -105 40 -243 73 -115 179 -218 298 -289 l57
-35 -33 -43 c-54 -71 -74 -109 -103 -194 -24 -69 -28 -101 -33 -235 l-6 -155
-460 -6 c-471 -6 -479 -7 -615 -51 -330 -107 -585 -396 -651 -738 -18 -93 -15
-298 6 -395 37 -177 119 -330 245 -454 302 -302 759 -384 1128 -205 52 25 95
44 96 42 1 -2 20 -52 41 -113 134 -386 387 -795 718 -1158 l67 -74 0 -187 c0
-193 5 -223 45 -256 8 -7 34 -13 57 -13 34 0 47 6 70 32 l28 31 0 197 0 196
78 86 c317 347 577 766 703 1131 23 69 43 126 45 128 1 2 44 -17 96 -42 332
-161 747 -110 1046 130 204 163 316 377 342 654 43 449 -233 870 -660 1008
-136 44 -144 45 -615 51 l-460 6 -6 160 c-8 206 -35 295 -129 420 l-37 50 59
34 c129 76 255 209 332 351 54 101 48 168 -20 198 -62 29 -98 5 -158 -104 -67
-122 -179 -232 -297 -293 l-86 -45 -54 24 c-172 74 -354 77 -531 9 l-80 -31
-41 18 c-141 63 -262 176 -342 320 -67 119 -114 141 -180 83z m1040 -569 c86
-30 135 -62 198 -129 99 -108 127 -193 127 -387 l0 -114 -467 2 -468 3 -3 105
c-5 172 29 279 122 386 45 52 130 110 199 134 74 26 215 26 292 0z m-325 -841
c0 -17 -588 -1116 -637 -1191 -65 -99 -185 -207 -285 -256 -121 -59 -192 -75
-328 -75 -207 2 -371 59 -516 181 -175 147 -264 344 -264 582 0 128 23 228 77
340 41 83 60 108 147 195 78 77 120 110 182 143 73 38 185 73 269 85 17 2 328
5 693 6 466 1 662 -2 662 -10z m1780 -9 c266 -54 489 -253 577 -515 24 -72 27
-94 27 -230 1 -115 -4 -165 -17 -215 -56 -201 -195 -369 -388 -470 -225 -117
-527 -112 -737 12 -78 46 -194 158 -246 237 -48 73 -636 1174 -636 1190 0 8
202 11 663 11 616 0 669 -2 757 -20z m-1433 -412 c89 -167 193 -364 231 -438
165 -324 245 -461 320 -549 27 -32 28 -37 20 -84 -16 -85 -87 -270 -163 -424
-82 -164 -84 -168 -207 -351 -124 -185 -345 -462 -368 -462 -10 0 -154 169
-234 274 -62 82 -190 267 -244 354 -77 124 -183 358 -233 517 -37 117 -37 138
4 189 18 23 48 62 66 89 37 54 203 360 265 487 65 134 369 700 376 700 3 0 79
-136 167 -302z"/>
</g>
</svg>
