<?xml version="1.0" standalone="no"?>
<!DOCTYPE svg PUBLIC "-//W3C//DTD SVG 20010904//EN"
 "http://www.w3.org/TR/2001/REC-SVG-20010904/DTD/svg10.dtd">
<svg version="1.0" xmlns="http://www.w3.org/2000/svg"
 width="512.000000pt" height="512.000000pt" viewBox="0 0 512.000000 512.000000"
 preserveAspectRatio="xMidYMid meet">

<g transform="translate(0.000000,512.000000) scale(0.100000,-0.100000)"
fill="#000000" stroke="none">
<path d="M1063 4893 c-240 -150 -365 -234 -372 -250 -7 -16 -11 -134 -11 -348
l0 -324 -330 -206 c-182 -114 -335 -215 -340 -225 -6 -11 -10 -160 -10 -383 0
-341 1 -366 19 -388 10 -13 163 -114 340 -224 l321 -200 0 -296 0 -297 -317
-197 c-175 -109 -328 -208 -340 -222 -23 -24 -23 -24 -23 -393 0 -368 0 -369
22 -394 39 -43 709 -456 741 -456 38 0 51 7 384 216 161 101 298 184 304 184
6 0 147 -85 313 -189 349 -218 336 -211 374 -211 37 0 561 326 581 362 22 38
7 94 -29 113 -16 8 -38 15 -48 15 -11 0 -128 -68 -261 -151 -156 -97 -248
-149 -258 -145 -9 4 -144 86 -300 184 l-283 177 0 295 1 295 147 90 c81 50
159 102 175 117 44 43 34 104 -24 134 -41 21 -55 15 -236 -99 l-152 -96 -286
178 c-157 98 -292 184 -300 191 -13 11 -15 58 -15 301 l0 288 288 180 c159 99
295 183 304 186 8 3 81 -35 176 -95 97 -60 171 -100 187 -100 32 0 85 49 85
79 0 49 -25 72 -187 173 l-163 101 2 296 3 295 290 182 c160 101 296 181 304
178 8 -3 144 -86 303 -185 l288 -180 0 -79 c0 -75 1 -79 31 -104 38 -32 70
-33 106 -2 25 22 28 32 33 107 l5 83 295 183 c171 107 301 181 309 178 8 -3
144 -87 303 -187 l288 -180 0 -333 c0 -373 0 -370 71 -381 29 -5 41 -1 65 19
l29 25 0 375 0 375 -23 25 c-12 13 -166 114 -342 223 l-320 199 0 336 c0 335
0 336 -22 356 -24 21 -638 407 -695 437 -18 9 -41 16 -51 16 -11 0 -161 -88
-333 -196 -173 -108 -322 -200 -331 -205 -13 -7 -93 39 -344 196 -206 128
-338 205 -353 205 -16 0 -163 -86 -388 -227z m687 -147 l295 -183 3 -295 2
-294 -299 -187 -300 -188 -301 188 -300 188 0 291 0 292 298 186 c163 102 299
186 302 186 3 0 138 -83 300 -184z m1365 0 l290 -182 3 -296 2 -296 -296 -186
c-174 -109 -302 -182 -309 -178 -7 4 -141 88 -299 186 l-286 180 2 294 3 295
290 183 c160 100 295 182 300 182 6 1 141 -81 300 -182z m-2048 -1108 l293
-183 0 -297 0 -297 -288 -179 c-158 -99 -292 -182 -298 -184 -6 -2 -144 80
-308 182 l-296 185 2 294 3 294 290 183 c160 100 294 183 299 183 5 1 141 -81
303 -181z m7 -2224 l286 -179 0 -296 0 -297 -296 -185 -296 -184 -299 186
-299 186 3 295 2 294 290 183 c160 100 298 181 307 179 9 -2 145 -84 302 -182z"/>
<path d="M3035 3318 c-58 -32 -58 -72 0 -189 l46 -90 -44 -48 c-87 -98 -137
-228 -137 -363 l0 -68 -168 0 c-201 0 -385 -20 -507 -55 -100 -29 -250 -97
-318 -144 -246 -169 -264 -420 -42 -594 182 -143 459 -227 746 -227 l129 0 -6
-157 c-13 -305 31 -537 147 -782 102 -215 237 -354 397 -406 l52 -17 0 -58 c0
-73 5 -87 41 -105 42 -22 67 -18 100 14 26 26 29 37 29 89 l0 59 59 22 c317
116 533 564 534 1111 0 91 -3 180 -7 197 l-7 32 133 0 c392 0 769 164 876 381
37 75 38 181 3 253 -52 107 -184 214 -344 279 -180 74 -385 108 -646 108
l-168 0 -6 90 c-10 141 -56 253 -145 352 l-33 36 46 91 c25 50 45 102 45 117
0 32 -50 84 -82 84 -40 0 -67 -28 -113 -119 l-44 -88 -73 19 c-81 22 -185 19
-258 -6 l-41 -14 -44 88 c-57 113 -93 139 -150 108z m110 -938 c180 -13 179
-13 172 -59 -10 -60 -102 -231 -174 -320 -111 -139 -237 -233 -367 -273 -60
-18 -85 -20 -200 -15 -195 8 -352 47 -503 127 -160 83 -224 181 -179 269 60
116 321 237 581 270 99 12 504 13 670 1z m1290 -13 c248 -54 444 -157 495
-262 33 -67 22 -104 -48 -174 -159 -158 -586 -265 -817 -206 -195 50 -438 289
-524 514 -48 125 -47 119 -5 127 143 27 775 27 899 1z m-987 -329 c16 -29 46
-74 66 -101 20 -26 36 -49 36 -52 0 -3 -63 -5 -140 -5 l-141 0 40 53 c21 28
53 76 71 105 17 28 33 52 35 52 2 0 16 -24 33 -52z m-197 -619 c22 -55 45 -59
374 -59 l295 0 0 -80 0 -80 -504 0 -504 0 -6 23 c-3 12 -6 47 -6 78 l0 56 62
6 c51 5 67 10 85 32 13 14 23 33 23 41 0 11 17 14 84 14 l84 0 13 -31z m419
-668 c0 -27 56 -71 91 -71 16 0 29 -3 29 -8 0 -23 -99 -170 -147 -218 -113
-113 -239 -139 -361 -74 -76 40 -147 115 -208 219 l-44 76 211 5 211 5 24 28
c13 15 24 35 24 43 0 11 18 14 85 14 77 0 85 -2 85 -19z"/>
</g>
</svg>
