<?xml version="1.0" standalone="no"?>
<!DOCTYPE svg PUBLIC "-//W3C//DTD SVG 20010904//EN"
 "http://www.w3.org/TR/2001/REC-SVG-20010904/DTD/svg10.dtd">
<svg version="1.0" xmlns="http://www.w3.org/2000/svg"
 width="512.000000pt" height="512.000000pt" viewBox="0 0 512.000000 512.000000"
 preserveAspectRatio="xMidYMid meet">

<g transform="translate(0.000000,512.000000) scale(0.100000,-0.100000)"
fill="#000000" stroke="none">
<path d="M2917 4740 c-104 -18 -195 -84 -245 -178 -18 -33 -35 -81 -38 -106
l-7 -46 -912 0 c-1026 0 -979 3 -1062 -73 -76 -69 -83 -94 -83 -298 0 -211 -1
-209 104 -209 l67 0 -3 -82 -3 -83 -60 -39 c-132 -86 -250 -235 -298 -376
l-22 -65 -3 -1035 c-2 -700 1 -1058 8 -1105 14 -89 56 -180 112 -241 40 -43
207 -176 321 -253 65 -44 174 -88 266 -106 65 -14 174 -15 761 -13 766 4 729
1 885 78 98 48 358 240 407 301 47 58 83 131 97 199 9 41 11 330 9 1117 -2
584 0 1056 3 1050 3 -7 113 -306 244 -664 l237 -652 -39 -59 c-22 -32 -45 -72
-52 -89 -9 -23 -26 -36 -61 -51 -36 -15 -51 -27 -56 -46 -8 -33 19 -76 47 -76
19 0 21 -4 15 -31 -3 -17 -6 -37 -6 -44 0 -7 -11 -16 -24 -19 -36 -9 -56 -33
-56 -66 0 -33 35 -63 67 -58 14 2 19 -4 21 -32 2 -30 -2 -38 -26 -51 -34 -19
-44 -48 -28 -81 9 -18 21 -24 53 -26 38 -3 42 -6 49 -35 4 -21 3 -32 -6 -35
-20 -7 -50 -41 -50 -56 0 -7 10 -26 22 -41 18 -24 26 -26 59 -21 34 6 40 3 53
-21 13 -26 12 -29 -10 -50 -29 -27 -31 -56 -4 -83 22 -22 46 -25 83 -11 21 8
28 5 47 -21 16 -22 19 -33 11 -41 -15 -15 -14 -70 1 -85 15 -15 57 -16 92 -2
22 8 37 4 89 -25 262 -144 536 -43 641 237 19 50 29 64 52 71 42 14 64 37 64
67 0 30 -27 60 -53 60 -13 0 -17 9 -17 39 0 34 4 40 29 49 81 29 71 122 -14
122 -17 0 -24 7 -29 32 -4 19 -2 34 3 36 6 2 21 12 35 23 53 42 14 115 -54
102 -21 -4 -27 1 -37 26 -10 27 -9 32 14 46 20 13 24 23 21 53 -4 44 -40 68
-80 53 -21 -8 -27 -5 -42 21 -18 29 -17 30 3 49 26 25 27 61 1 84 -16 14 -29
16 -68 11 -43 -6 -51 -3 -72 19 -18 20 -21 28 -12 37 16 16 15 71 0 86 -15 15
-55 15 -96 1 -26 -9 -41 -7 -94 14 -35 14 -79 28 -98 32 l-36 6 -339 931
c-186 513 -349 967 -362 1010 -33 114 -45 256 -32 383 8 76 7 120 0 157 -40
184 -221 309 -404 278z m-256 -502 c12 -24 54 -77 93 -118 91 -95 136 -148
136 -160 0 -6 -400 -10 -1100 -10 l-1100 0 0 115 c0 131 11 163 63 195 31 19
57 20 959 20 l928 0 21 -42z m49 -473 l0 -65 -925 0 -925 0 0 65 0 65 925 0
925 0 0 -65z m289 15 c24 -55 151 -400 151 -409 0 -4 -13 14 -30 39 -42 63
-133 154 -210 208 -36 26 -68 51 -72 57 -4 5 -8 43 -8 83 l0 72 74 0 74 0 21
-50z m-210 -227 c121 -70 210 -161 265 -270 32 -65 33 -83 3 -83 -71 0 -228
-72 -366 -167 l-94 -65 -111 55 c-269 135 -463 187 -696 187 -70 0 -167 -7
-216 -15 -130 -23 -311 -86 -463 -162 -89 -44 -137 -63 -145 -57 -7 5 -61 42
-121 82 -109 72 -227 126 -304 138 -23 4 -44 10 -46 14 -10 16 68 152 117 205
27 30 87 80 131 110 l82 55 959 0 959 0 46 -27z m-813 -478 c126 -22 300 -83
442 -154 l122 -61 0 -149 0 -148 -72 37 c-78 41 -174 70 -232 70 -28 0 -42 8
-73 41 -91 98 -228 159 -363 162 -142 2 -263 -45 -365 -144 -51 -49 -68 -59
-96 -59 -57 0 -149 -27 -231 -69 l-78 -39 0 148 0 147 133 66 c144 72 304 129
425 151 105 19 281 19 388 1z m-1370 -26 c63 -24 200 -105 260 -154 l44 -36 0
-201 0 -200 -47 -62 c-54 -71 -114 -194 -139 -286 -26 -91 -26 -328 -1 -420
25 -88 86 -214 141 -287 l46 -61 0 -356 c0 -196 -4 -356 -8 -356 -24 0 -311
218 -351 267 -17 21 -40 62 -51 91 -19 51 -20 81 -20 1073 l0 1021 37 -7 c20
-3 60 -15 89 -26z m2492 -996 c-3 -1136 2 -1049 -65 -1146 -24 -35 -228 -196
-328 -259 l-40 -25 3 364 3 364 39 52 c58 76 105 171 136 272 23 79 27 107 27
225 0 118 -4 146 -27 225 -31 102 -78 196 -136 273 l-40 52 0 209 0 208 78 55
c112 81 269 155 330 157 l22 1 -2 -1027z m-1145 663 c37 -18 85 -54 127 -97
66 -66 71 -69 117 -69 217 0 436 -178 520 -423 26 -75 28 -94 28 -227 0 -131
-3 -153 -28 -227 -81 -241 -305 -423 -522 -423 -44 0 -50 -3 -113 -67 -45 -44
-89 -77 -132 -97 -59 -28 -74 -31 -165 -31 -131 0 -187 24 -285 125 -67 67
-71 70 -118 70 -232 0 -470 208 -537 470 -62 240 2 491 169 661 99 102 210
156 349 168 l79 7 50 57 c89 102 175 138 313 134 74 -3 100 -8 148 -31z m-709
-1570 c36 -9 80 -16 99 -16 26 0 42 -9 72 -41 58 -60 149 -117 228 -141 90
-27 244 -22 325 11 70 28 164 93 199 136 23 28 35 35 63 35 57 0 149 27 233
68 l77 38 0 -295 c0 -279 -1 -298 -20 -329 -39 -63 -23 -62 -738 -62 l-649 0
-34 23 c-66 44 -69 58 -69 379 l0 287 75 -38 c41 -21 104 -46 139 -55z"/>
<path d="M1411 2521 c-32 -32 -45 -98 -32 -154 13 -57 8 -71 -21 -56 -12 6
-47 9 -80 7 -96 -7 -141 -57 -103 -115 17 -26 20 -26 111 -8 l30 7 -4 -60 c-3
-49 0 -70 21 -115 14 -30 38 -65 55 -77 l30 -22 -19 -71 c-54 -207 -23 -412
81 -530 102 -117 249 -98 320 39 l25 49 145 0 c136 0 147 -2 174 -22 51 -41
123 -25 151 32 20 43 19 48 -7 98 -21 38 -23 56 -23 194 l0 151 38 17 c122 54
160 186 83 288 -100 132 -322 185 -540 128 l-80 -21 -30 33 c-49 53 -92 71
-168 72 -63 0 -68 2 -68 22 0 12 5 34 10 48 24 64 -52 113 -99 66z m781 -353
c146 -68 146 -158 0 -189 -103 -21 -228 11 -354 93 -39 24 -48 36 -48 58 0 29
10 33 145 64 11 3 61 4 110 2 73 -1 101 -7 147 -28z m-568 -327 c61 -100 88
-184 89 -281 1 -70 -3 -94 -22 -133 -41 -84 -99 -72 -152 34 -52 102 -57 236
-14 387 13 44 19 52 40 52 18 0 32 -13 59 -59z m486 1 c0 -20 -135 -175 -196
-225 l-69 -56 -3 41 c-3 39 0 44 65 107 38 37 81 83 97 104 24 31 34 37 67 37
22 0 39 -3 39 -8z"/>
</g>
</svg>
